<svg xmlns="http://www.w3.org/2000/svg" width="28" height="28" fill="none">
  <symbol id="save" viewBox="0 0 28 28">
    <path fill="#000" d="M0 0h2.154v2.154H0zM0 2.154h2.154v2.154H0zM0 4.308h2.154v2.154H0zM0 6.462h2.154v2.154H0z"/>
    <path fill="#000" d="M0 8.615h2.154v2.154H0zM0 10.77h2.154v2.154H0z"/>
    <path fill="#000" d="M0 12.923h2.154v2.154H0zM0 15.077h2.154v2.154H0z"/>
    <path fill="#000" d="M0 17.23h2.154v2.154H0zM0 19.385h2.154v2.154H0z"/>
    <path fill="#000" d="M0 21.538h2.154v2.154H0zM0 23.692h2.154v2.154H0zM0 25.846h2.154V28H0zM23.693 0v2.154h-2.154V0z"/>
    <path fill="#000" d="M21.54 0v2.154h-2.155V0zM19.384 0v2.154H17.23V0zM17.23 0v2.154h-2.154V0z"/>
    <path fill="#000" d="M15.077 0v2.154h-2.154V0zM12.923 0v2.154H10.77V0zM10.77 0v2.154H8.615V0z"/>
    <path fill="#000" d="M8.616 0v2.154H6.462V0zM6.46 0v2.154H4.308V0zM4.307 0v2.154H2.153V0zM25.847 2.154v2.154h-2.154V2.154zM6.46 4.308v2.154H4.308V4.308zM6.461 2.154v2.154H4.307V2.154zM6.46 6.462v2.154H4.308V6.462zM21.539 4.308v2.154h-2.154V4.308zM21.54 2.154v2.154h-2.155V2.154zM21.539 6.462v2.154h-2.154V6.462zM17.23 4.307v2.154h-2.154V4.307z"/>
    <path fill="#000" d="M17.23 2.154v2.154h-2.153V2.154zM17.23 6.461v2.154h-2.154V6.461zM21.54 8.615v2.154h-2.155V8.615zM19.384 8.615v2.154H17.23V8.615zM17.23 8.615v2.154h-2.153V8.615zM15.077 8.615v2.154h-2.154V8.615zM12.923 8.615v2.154H10.77V8.615zM10.77 8.616v2.154H8.616V8.616zM8.616 8.615v2.154H6.462V8.615zM6.461 8.615v2.154H4.307V8.615zM23.693 15.077v2.154h-2.154v-2.154z"/>
    <path fill="#000" d="M21.54 15.077v2.154h-2.155v-2.154zM19.384 15.077v2.154H17.23v-2.154zM17.23 15.077v2.154h-2.153v-2.154zM15.077 15.077v2.154h-2.154v-2.154zM12.923 15.077v2.154H10.77v-2.154zM10.77 15.078v2.154H8.616v-2.154zM8.616 15.077v2.154H6.462v-2.154zM6.461 15.077v2.154H4.307v-2.154zM23.693 17.23v2.155H21.54V17.23z"/>
    <path fill="#000" d="M6.461 17.23v2.155H4.307V17.23zM23.692 19.385v2.154h-2.154v-2.154zM6.46 19.385v2.154H4.308v-2.154z"/>
    <path fill="#000" d="M23.693 21.538v2.154h-2.154v-2.154zM6.461 21.538v2.154H4.307v-2.154zM6.461 23.692v2.154H4.307v-2.154zM23.693 23.693v2.154H21.54v-2.154z"/>
    <path fill="#000" d="M25.846 25.845V28h-2.154v-2.154zM23.692 25.846V28h-2.154v-2.154z"/>
    <path fill="#000" d="M21.539 25.846V28h-2.154v-2.154zM19.384 25.846V28H17.23v-2.154zM17.23 25.845V28h-2.154v-2.154z"/>
    <path fill="#000" d="M15.077 25.846V28h-2.155v-2.154z"/>
    <path fill="#000" d="M12.923 25.846v2.153h-2.154v-2.153z"/>
    <path fill="#000" d="M10.77 25.846V28H8.614v-2.154z"/>
    <path fill="#000" d="M8.616 25.846V28H6.462v-2.154zM6.46 25.846V28H4.308v-2.154zM4.307 25.845V28H2.153v-2.154zM28 28h-2.154v-2.154H28zM28 25.845h-2.154v-2.154H28z"/>
    <path fill="#000" d="M28 23.693h-2.154v-2.154H28zM28 21.538h-2.154v-2.154H28z"/>
    <path fill="#000" d="M28 19.385h-2.154V17.23H28z"/>
    <path fill="#000" d="M28 17.231h-2.154v-2.154H28zM28 15.077h-2.154v-2.154H28zM28 12.923h-2.154v-2.154H28zM28 10.769h-2.154V8.615H28zM28 8.615h-2.154V6.461H28z"/>
    <path fill="#000" d="M28 6.462h-2.154V4.308H28z"/>
  </symbol>
</svg>

<svg xmlns="http://www.w3.org/2000/svg" width="39" height="39" fill="none" viewBox="0 0 39 39">
  <symbol id="dialog" viewBox="0 0 39 39">
    <path fill="#000" d="M0 0h3v3H0zM0 3h3v3H0zM0 6h3v3H0zM0 9h3v3H0zM0 12h3v3H0zM0 15h3v3H0zM0 18h3v3H0zM0 21h3v3H0zM0 24h3v3H0zM0 27h3v3H0zM0 30h3v3H0zM0 33h3v3H0zM0 36h3v3H0zM33 0v3h-3V0zM30 0v3h-3V0zM27 0v3h-3V0zM24 0v3h-3V0zM21 0v3h-3V0zM18 0v3h-3V0zM15 0v3h-3V0zM12 0v3H9V0zM9 0v3H6V0zM6 0v3H3V0zM36 3v3h-3V3zM9 6v3H6V6zM9 3v3H6V3zM9 9v3H6V9zM30 6v3h-3V6zM30 3v3h-3V3zM30 9v3h-3V9zM24 6v3h-3V6zM24 3v3h-3V3zM24 9v3h-3V9zM30 12v3h-3v-3zM27 12v3h-3v-3zM24 12v3h-3v-3zM21 12v3h-3v-3zM18 12v3h-3v-3zM15 12v3h-3v-3zM12 12v3H9v-3zM9 12v3H6v-3zM33 21v3h-3v-3zM30 21v3h-3v-3zM27 21v3h-3v-3zM24 21v3h-3v-3zM21 21v3h-3v-3zM18 21v3h-3v-3zM15 21v3h-3v-3zM12 21v3H9v-3zM9 21v3H6v-3zM33 24v3h-3v-3zM9 24v3H6v-3zM33 27v3h-3v-3zM9 27v3H6v-3zM33 30v3h-3v-3zM9 30v3H6v-3zM9 33v3H6v-3zM33 33v3h-3v-3zM36 36v3h-3v-3zM33 36v3h-3v-3zM30 36v3h-3v-3zM27 36v3h-3v-3zM24 36v3h-3v-3zM21 36v3h-3v-3zM18 36v3h-3v-3zM15 36v3h-3v-3zM12 36v3H9v-3zM9 36v3H6v-3zM6 36v3H3v-3zM39 39h-3v-3h3zM39 36h-3v-3h3zM39 33h-3v-3h3zM39 30h-3v-3h3zM39 27h-3v-3h3zM39 24h-3v-3h3zM39 21h-3v-3h3zM39 18h-3v-3h3zM39 15h-3v-3h3zM39 12h-3V9h3zM39 9h-3V6h3z"/>
  </symbol>
</svg>